<mxfile host="app.diagrams.net" modified="2020-07-24T11:54:40.752Z" agent="5.0 (Windows NT 10.0; Win64; x64) AppleWebKit/537.36 (KHTML, like Gecko) Chrome/79.0.3945.117 Safari/537.36" etag="pe34buA_Q2ZgCjEXjgif" version="13.5.1" type="github">
  <diagram id="2f404044-711c-603c-8f00-f6bb4c023d3c" name="Page-1">
    <mxGraphModel dx="2591" dy="762" grid="1" gridSize="10" guides="1" tooltips="1" connect="1" arrows="1" fold="1" page="1" pageScale="1" pageWidth="1169" pageHeight="827" background="#ffffff" math="0" shadow="0">
      <root>
        <mxCell id="0" />
        <mxCell id="1" parent="0" />
        <mxCell id="dgNvY1Ny9U7OnIuGtija-62" style="edgeStyle=orthogonalEdgeStyle;rounded=0;orthogonalLoop=1;jettySize=auto;html=1;fillColor=#1ba1e2;strokeColor=#006EAF;strokeWidth=3;" edge="1" parent="1" source="dgNvY1Ny9U7OnIuGtija-63" target="dgNvY1Ny9U7OnIuGtija-65">
          <mxGeometry relative="1" as="geometry">
            <mxPoint x="-630" y="244" as="targetPoint" />
            <Array as="points" />
          </mxGeometry>
        </mxCell>
        <mxCell id="dgNvY1Ny9U7OnIuGtija-63" value="Opt Out Count JavaScript" style="shape=image;html=1;verticalAlign=top;verticalLabelPosition=bottom;labelBackgroundColor=#ffffff;imageAspect=0;aspect=fixed;image=https://cdn4.iconfinder.com/data/icons/file-names-25/512/1-128.png" vertex="1" parent="1">
          <mxGeometry x="-850" y="200" width="88" height="88" as="geometry" />
        </mxCell>
        <mxCell id="dgNvY1Ny9U7OnIuGtija-64" style="edgeStyle=orthogonalEdgeStyle;rounded=0;orthogonalLoop=1;jettySize=auto;html=1;strokeWidth=3;fillColor=#1ba1e2;strokeColor=#006EAF;" edge="1" parent="1" source="dgNvY1Ny9U7OnIuGtija-65" target="dgNvY1Ny9U7OnIuGtija-73">
          <mxGeometry relative="1" as="geometry">
            <mxPoint x="-321" y="244" as="targetPoint" />
            <Array as="points" />
          </mxGeometry>
        </mxCell>
        <mxCell id="dgNvY1Ny9U7OnIuGtija-65" value="Country Count JavaScript" style="shape=image;html=1;verticalAlign=top;verticalLabelPosition=bottom;labelBackgroundColor=#ffffff;imageAspect=0;aspect=fixed;image=https://cdn4.iconfinder.com/data/icons/file-names-25/512/1-128.png" vertex="1" parent="1">
          <mxGeometry x="-640" y="200" width="88" height="88" as="geometry" />
        </mxCell>
        <mxCell id="dgNvY1Ny9U7OnIuGtija-69" style="edgeStyle=orthogonalEdgeStyle;rounded=0;orthogonalLoop=1;jettySize=auto;html=1;entryX=0.089;entryY=0.407;entryDx=0;entryDy=0;entryPerimeter=0;fillColor=#1ba1e2;strokeWidth=3;" edge="1" parent="1" source="dgNvY1Ny9U7OnIuGtija-71" target="dgNvY1Ny9U7OnIuGtija-72">
          <mxGeometry relative="1" as="geometry" />
        </mxCell>
        <mxCell id="dgNvY1Ny9U7OnIuGtija-70" value="Marketing team approves Good to Go" style="edgeLabel;html=1;align=center;verticalAlign=middle;resizable=0;points=[];" vertex="1" connectable="0" parent="dgNvY1Ny9U7OnIuGtija-69">
          <mxGeometry x="-0.1058" y="3" relative="1" as="geometry">
            <mxPoint x="13" y="-20.96" as="offset" />
          </mxGeometry>
        </mxCell>
        <mxCell id="dgNvY1Ny9U7OnIuGtija-71" value="Execution Approval" style="shape=image;html=1;verticalAlign=top;verticalLabelPosition=bottom;labelBackgroundColor=#ffffff;imageAspect=0;aspect=fixed;image=https://cdn1.iconfinder.com/data/icons/handy-vol-1-2/128/handyArtboard_13-128.png" vertex="1" parent="1">
          <mxGeometry x="140" y="189" width="110" height="110" as="geometry" />
        </mxCell>
        <mxCell id="dgNvY1Ny9U7OnIuGtija-72" value="Campaign Scheduler" style="verticalLabelPosition=bottom;html=1;verticalAlign=top;align=center;strokeColor=none;fillColor=#00BEF2;shape=mxgraph.azure.scheduler;pointerEvents=1;" vertex="1" parent="1">
          <mxGeometry x="560" y="200" width="90" height="108" as="geometry" />
        </mxCell>
        <mxCell id="dgNvY1Ny9U7OnIuGtija-81" style="edgeStyle=orthogonalEdgeStyle;rounded=0;orthogonalLoop=1;jettySize=auto;html=1;fillColor=#1ba1e2;strokeColor=#006EAF;strokeWidth=3;" edge="1" parent="1" source="dgNvY1Ny9U7OnIuGtija-73" target="dgNvY1Ny9U7OnIuGtija-80">
          <mxGeometry relative="1" as="geometry" />
        </mxCell>
        <mxCell id="dgNvY1Ny9U7OnIuGtija-73" value="Data Team Alert" style="aspect=fixed;perimeter=ellipsePerimeter;html=1;align=center;shadow=0;dashed=0;fontColor=#4277BB;labelBackgroundColor=#ffffff;fontSize=12;spacingTop=3;image;image=img/lib/ibm/management/alert_notification.svg;" vertex="1" parent="1">
          <mxGeometry x="-380" y="204" width="80" height="80" as="geometry" />
        </mxCell>
        <mxCell id="dgNvY1Ny9U7OnIuGtija-86" style="edgeStyle=orthogonalEdgeStyle;rounded=0;orthogonalLoop=1;jettySize=auto;html=1;strokeColor=#006EAF;strokeWidth=3;fillColor=#1ba1e2;" edge="1" parent="1" source="dgNvY1Ny9U7OnIuGtija-80" target="dgNvY1Ny9U7OnIuGtija-71">
          <mxGeometry relative="1" as="geometry" />
        </mxCell>
        <mxCell id="dgNvY1Ny9U7OnIuGtija-80" value="Promo Ops Alert" style="aspect=fixed;perimeter=ellipsePerimeter;html=1;align=center;shadow=0;dashed=0;fontColor=#4277BB;labelBackgroundColor=#ffffff;fontSize=12;spacingTop=3;image;image=img/lib/ibm/management/alert_notification.svg;" vertex="1" parent="1">
          <mxGeometry x="-110" y="204" width="80" height="80" as="geometry" />
        </mxCell>
        <mxCell id="dgNvY1Ny9U7OnIuGtija-87" value="Data Automatically goes through Alerts to provide campaign report without approval needed" style="text;html=1;resizable=0;autosize=1;align=center;verticalAlign=middle;points=[];fillColor=none;strokeColor=none;rounded=0;" vertex="1" parent="1">
          <mxGeometry x="-450" y="169" width="500" height="20" as="geometry" />
        </mxCell>
      </root>
    </mxGraphModel>
  </diagram>
</mxfile>
